<?xml version="1.0" encoding="utf-8"?>
<!-- Generator: Adobe Illustrator 17.0.0, SVG Export Plug-In . SVG Version: 6.00 Build 0)  -->
<!DOCTYPE svg PUBLIC "-//W3C//DTD SVG 1.1//EN" "http://www.w3.org/Graphics/SVG/1.1/DTD/svg11.dtd">
<svg version="1.1" id="Layer_1" xmlns="http://www.w3.org/2000/svg" xmlns:xlink="http://www.w3.org/1999/xlink" x="0px" y="0px"
	 width="3579.709px" height="1792.135px" viewBox="0 0 3579.709 1792.135" enable-background="new 0 0 3579.709 1792.135"
	 xml:space="preserve">
<path fill="#FFFFFF" d="M3406.968,846.144c-236.278-239.366-468.816-482.11-700.772-725.471
	c-146.489-153.572-327.557-161.308-478.078-11.696c-82.67,82.053-160.691,169.009-246.122,259.089
	c44.713,39.482,97.453,86.048,154.843,136.609c75.551-72.79,158.839-154.189,243.652-234.389
	c66.616-63.238,98.688-63.855,162.834,2.47c242.744,250.117,485.488,500.598,726.379,752.568
	c121.826,127.384,118.448,325.087-3.995,446.622c-127.093,126.476-322.327,131.706-451.236,7.701
	c-189.713-181.977-377.247-366.713-565.688-550.251c-285.605-278.195-570.919-557.007-857.468-834.62
	c-128.909-124.914-302.567-126.766-432.094-3.088c-267.443,255.384-534.85,510.478-798.552,769.567
	c-210.671,207.257-213.432,541.279-12.64,758.742c195.524,211.289,529.874,227.924,753.185,36.723
	c36.104-30.874,69.703-65.091,109.186-101.812c-49.944-53.976-96.219-103.919-148.959-160.982
	c-35.16,32.073-67.851,62.911-101.776,92.514c-108.895,95.02-257.854,109.513-378.772,38.248
	c-118.739-69.994-180.741-211.579-151.138-343.575c32.4-143.438,142.82-242.127,289.309-254.186
	c96.836-7.991,180.451,24.7,250.771,92.224c207.874,199.556,416.366,398.531,623.95,598.378
	c234.426,225.491,538.846,232.574,776.976,21.285l0.4-0.363l1.126-0.981c1.09-1.017,2.397-2.216,2.833-2.579
	c0.109-0.109,0.799-0.654,1.961-1.598l0.109-0.073l80.745-70.43l170.099-148.341c-13.439-13.185-26.915-26.334-40.354-39.483
	l44.75,43.696l-0.036,0.036l4.54,4.395c1.78,1.78,3.56,3.487,5.339,5.23c65.453,63.964,130.943,127.964,196.36,192.002
	c227.016,222.076,572.48,226.689,786.82,7.7C3639.215,1409.326,3628.718,1071.308,3406.968,846.144z M2020.099,1475.397
	c-3.414,3.233-6.829,6.356-10.316,9.371c-130.398,114.38-311.938,114.125-439.249-6.356
	c-200.501-189.059-400.965-378.445-597.143-571.826c-92.514-91.279-192.764-165.014-345.755-198.031
	c60.768-54.884,108.568-96.509,154.516-140.315c104.282-99.342,207.91-199.556,311.212-299.806
	c61.385-59.206,98.107-59.823,159.783,0.29c331.662,323.235,663.432,646.325,994.84,969.85l0.4,0.364l15.728,14.347
	L2020.099,1475.397z"/>
</svg>
